<?xml version="1.0" standalone="no"?>
<!DOCTYPE svg PUBLIC "-//W3C//DTD SVG 20010904//EN"
 "http://www.w3.org/TR/2001/REC-SVG-20010904/DTD/svg10.dtd">
<svg version="1.0" xmlns="http://www.w3.org/2000/svg"
 width="1411.000000pt" height="1920.000000pt" viewBox="0 0 1411.000000 1920.000000"
 preserveAspectRatio="xMidYMid meet">

<g transform="translate(0.000000,1920.000000) scale(0.100000,-0.100000)"
fill="#000000" stroke="none">
<path d="M13530 18405 c30 -34 57 -59 60 -58 2 2 -23 29 -55 61 l-59 57 54
-60z"/>
<path d="M13608 18329 c6 -9 8 -19 4 -23 -4 -4 -1 -6 7 -4 8 2 24 -11 36 -29
12 -18 25 -29 29 -26 6 6 10 -12 7 -30 -1 -5 3 -6 8 -3 19 12 156 -184 226
-324 87 -173 147 -393 165 -600 l9 -105 -4 105 c-11 304 -147 652 -355 905
-51 61 -164 176 -132 134z"/>
<path d="M13709 18185 c17 -33 31 -51 31 -40 0 6 -10 21 -21 35 -13 17 -17 18
-10 5z"/>
<path d="M1890 17542 l0 -538 -22 -44 c-31 -60 -62 -79 -146 -92 l-72 -12 0
-103 0 -103 84 0 c275 0 426 114 456 342 5 40 10 301 10 581 l0 507 -155 0
-155 0 0 -538z"/>
<path d="M13767 18057 c-3 -8 1 -14 8 -14 7 0 11 6 8 14 -3 7 -6 13 -8 13 -2
0 -5 -6 -8 -13z"/>
<path d="M13815 17961 c8 -25 13 -54 9 -65 -4 -17 -3 -18 5 -6 9 12 11 13 11
1 0 -8 3 -12 6 -8 7 6 -24 96 -38 112 -5 5 -2 -10 7 -34z"/>
<path d="M13852 17860 c0 -8 6 -31 13 -50 7 -19 13 -28 13 -20 0 8 -6 31 -13
50 -7 19 -13 28 -13 20z"/>
<path d="M13882 17745 c0 -11 3 -29 8 -40 11 -25 11 1 0 35 -6 20 -8 21 -8 5z"/>
<path d="M13902 17655 c0 -16 2 -22 5 -12 2 9 2 23 0 30 -3 6 -5 -1 -5 -18z"/>
<path d="M13912 17570 c0 -19 2 -27 5 -17 2 9 2 25 0 35 -3 9 -5 1 -5 -18z"/>
<path d="M13923 17460 c0 -36 2 -50 4 -32 2 17 2 47 0 65 -2 17 -4 3 -4 -33z"/>
<path d="M13903 17470 c0 -25 2 -35 4 -22 2 12 2 32 0 45 -2 12 -4 2 -4 -23z"/>
<path d="M10322 17155 c-158 -35 -262 -150 -270 -298 -9 -142 79 -256 196
-257 94 0 172 87 142 159 -18 44 -35 44 -63 2 -49 -75 -119 -75 -157 -2 -73
145 55 304 245 304 205 0 360 -189 342 -417 -13 -168 -113 -312 -272 -390
-120 -58 42 -54 -2755 -71 -1416 -8 -2860 -17 -3207 -21 l-633 -6 0 -50 0 -50
712 6 c392 3 1143 8 1668 11 3595 20 4010 25 4101 45 145 31 201 63 318 180
135 135 171 215 171 378 0 310 -258 539 -538 477z"/>
<path d="M11470 16849 c-25 -5 -81 -27 -126 -49 -62 -30 -97 -56 -146 -108
-75 -80 -110 -139 -144 -241 -44 -134 -47 -262 -34 -1621 7 -685 12 -1328 11
-1430 -4 -923 3 -2544 10 -2585 12 -63 12 -294 0 -405 -6 -53 -6 -147 0 -249
5 -90 9 -180 9 -200 0 -20 -3 -195 -6 -388 l-6 -353 50 0 50 0 -4 998 c-16
3698 -22 6064 -14 6111 28 168 121 302 258 374 244 129 535 19 592 -222 28
-118 -27 -259 -120 -308 -84 -44 -199 -22 -226 43 -18 44 -4 74 49 110 l41 27
-28 23 c-32 29 -58 30 -98 7 -85 -51 -99 -176 -27 -257 45 -52 106 -76 192
-76 164 0 284 112 318 295 41 222 -127 449 -368 500 -75 16 -163 18 -233 4z"/>
<path d="M1875 16540 c-214 -43 -371 -194 -421 -406 -23 -99 -15 -295 15 -384
61 -178 207 -305 398 -345 91 -20 266 -19 356 1 198 44 342 173 400 359 29 94
31 308 3 400 -29 97 -74 171 -143 235 -118 111 -237 151 -442 149 -69 -1 -144
-5 -166 -9z m266 -211 c50 -13 123 -80 153 -142 57 -115 56 -314 0 -434 -30
-62 -97 -125 -152 -141 -55 -17 -150 -15 -205 4 -68 23 -137 102 -162 185 -27
88 -27 261 -1 339 58 169 185 235 367 189z"/>
<path d="M1567 14983 c-4 -3 -7 -258 -7 -565 l0 -558 155 0 155 0 2 219 3 220
232 -220 232 -219 175 0 c97 0 176 2 176 5 0 19 -60 79 -315 320 -157 148
-281 272 -277 276 60 53 548 514 550 520 2 5 -73 9 -167 9 l-171 0 -217 -205
-218 -204 -3 204 -2 205 -149 0 c-81 0 -151 -3 -154 -7z"/>
<path d="M6683 13853 c15 -2 37 -2 50 0 12 2 0 4 -28 4 -27 0 -38 -2 -22 -4z"/>
<path d="M6808 13843 c7 -3 16 -2 19 1 4 3 -2 6 -13 5 -11 0 -14 -3 -6 -6z"/>
<path d="M6849 13826 c6 -8 22 -16 34 -20 21 -5 21 -4 -3 14 -29 23 -48 26
-31 6z"/>
<path d="M6950 13766 c0 -2 8 -10 18 -17 15 -13 16 -12 3 4 -13 16 -21 21 -21
13z"/>
<path d="M6990 13731 c0 -6 4 -13 10 -16 6 -3 7 1 4 9 -7 18 -14 21 -14 7z"/>
<path d="M7061 13624 c0 -11 3 -14 6 -6 3 7 2 16 -1 19 -3 4 -6 -2 -5 -13z"/>
<path d="M7096 13520 c4 -19 15 -60 25 -90 15 -46 18 -50 18 -24 1 32 -25 122
-41 139 -5 5 -6 -5 -2 -25z"/>
<path d="M6298 13477 c-3 -19 -2 -25 4 -19 6 6 8 18 6 28 -3 14 -5 12 -10 -9z"/>
<path d="M1640 12875 l0 -565 420 0 420 0 0 110 0 110 -270 0 -270 0 0 130 0
130 245 0 245 0 0 110 0 110 -245 0 -245 0 0 105 0 105 260 0 260 0 0 110 0
110 -410 0 -410 0 0 -565z"/>
<path d="M6283 13375 c0 -27 2 -38 4 -22 2 15 2 37 0 50 -2 12 -4 0 -4 -28z"/>
<path d="M7138 13175 c-4 -99 -14 -209 -22 -245 -8 -36 -15 -74 -15 -85 0 -18
1 -18 9 3 6 14 18 22 33 22 14 0 31 8 38 18 11 14 11 15 -1 5 -8 -7 -22 -13
-32 -13 -16 0 -18 5 -12 38 3 20 17 48 31 61 18 17 23 30 19 47 -4 13 -2 24 3
24 5 0 11 -8 13 -17 3 -10 10 7 17 38 9 44 9 62 0 83 -12 26 -33 34 -44 16
-13 -21 -24 -9 -13 15 8 19 8 31 0 48 -6 12 -13 45 -14 72 -2 28 -6 -31 -10
-130z m66 -51 c10 -26 7 -34 -14 -34 -11 0 -20 4 -20 9 0 17 12 41 20 41 4 0
11 -7 14 -16z m-19 -54 c3 -5 1 -10 -4 -10 -6 0 -11 5 -11 10 0 6 2 10 4 10 3
0 8 -4 11 -10z"/>
<path d="M6816 13271 c-3 -5 32 -7 82 -4 119 6 125 11 15 12 -50 1 -94 -3 -97
-8z"/>
<path d="M6465 13253 c-11 -3 -24 -10 -30 -15 -7 -7 -2 -9 15 -4 14 3 40 6 58
6 17 0 32 5 32 10 0 10 -39 12 -75 3z"/>
<path d="M7210 13215 c0 -5 5 -17 10 -25 5 -8 10 -10 10 -5 0 6 -5 17 -10 25
-5 8 -10 11 -10 5z"/>
<path d="M6650 13201 c0 -6 4 -12 9 -15 5 -4 12 -50 16 -104 7 -101 12 -129
21 -119 5 5 -11 172 -22 225 -4 21 -24 32 -24 13z"/>
<path d="M6282 13180 c0 -14 2 -19 5 -12 2 6 2 18 0 25 -3 6 -5 1 -5 -13z"/>
<path d="M6843 13185 c-74 -32 -17 -115 78 -115 36 0 66 15 91 44 28 33 20 44
-8 12 -21 -24 -36 -30 -78 -34 -45 -4 -56 -1 -82 21 -28 25 -28 26 -11 44 14
14 34 18 97 18 44 0 80 3 80 6 0 23 -119 25 -167 4z"/>
<path d="M6505 13161 c-52 -12 -95 -33 -89 -42 3 -6 11 -6 17 -2 26 19 90 34
135 33 64 -2 69 -1 52 10 -17 11 -69 11 -115 1z"/>
<path d="M6890 13150 c0 -5 5 -10 10 -10 6 0 10 5 10 10 0 6 -4 10 -10 10 -5
0 -10 -4 -10 -10z"/>
<path d="M7242 13130 c0 -19 2 -27 5 -17 2 9 2 25 0 35 -3 9 -5 1 -5 -18z"/>
<path d="M6285 13093 c7 -37 7 -37 -13 -20 -19 18 -21 18 -30 0 -6 -10 -14
-15 -18 -11 -4 4 -1 14 6 23 8 10 9 15 1 15 -12 0 -13 -3 -15 -51 0 -17 5 -34
12 -36 6 -3 12 -18 12 -34 0 -16 5 -29 10 -29 6 0 15 -11 20 -25 5 -14 15 -25
22 -25 9 0 9 3 0 12 -21 21 -13 30 9 9 12 -11 18 -24 14 -30 -3 -6 0 -11 8
-11 13 0 37 -39 37 -60 0 -6 -7 -10 -16 -10 -20 0 -57 38 -101 105 -37 56 -46
45 -9 -13 42 -66 81 -102 113 -102 21 0 33 -7 42 -22 11 -23 11 -23 5 2 -3 14
-12 39 -19 55 -23 55 -54 162 -65 229 -7 36 -17 66 -22 66 -6 0 -8 -14 -3 -37z
m5 -89 c0 -4 -9 1 -20 11 -11 10 -20 25 -20 33 0 9 7 6 20 -11 11 -14 20 -29
20 -33z m-6 -38 c-3 -9 -10 -16 -15 -16 -5 0 -4 9 3 20 14 22 21 20 12 -4z"/>
<path d="M6530 13114 c0 -8 5 -12 10 -9 6 4 8 11 5 16 -9 14 -15 11 -15 -7z"/>
<path d="M6615 13090 c-7 -23 -55 -52 -100 -61 l-30 -6 32 -2 c17 0 42 3 55 8
31 12 68 48 68 66 0 22 -18 18 -25 -5z"/>
<path d="M6420 13070 c6 -11 15 -20 20 -20 6 0 2 9 -7 20 -10 11 -19 20 -21
20 -1 0 2 -9 8 -20z"/>
<path d="M6690 12917 c0 -18 7 -42 16 -53 15 -18 15 -18 10 6 -3 14 -6 37 -6
53 0 15 -4 27 -10 27 -5 0 -10 -15 -10 -33z"/>
<path d="M6708 12773 c-16 -2 -28 -9 -28 -14 0 -15 66 -40 87 -32 23 8 53 33
53 45 0 8 -61 9 -112 1z m59 -29 c-3 -3 -12 -4 -19 -1 -8 3 -5 6 6 6 11 1 17
-2 13 -5z"/>
<path d="M6410 12731 c0 -5 25 -40 55 -78 53 -65 66 -93 45 -93 -5 0 -15 -10
-21 -22 l-11 -23 21 23 c25 26 56 29 65 6 11 -30 6 -122 -9 -150 -8 -16 -15
-38 -15 -49 0 -24 -71 -272 -102 -360 -41 -114 -104 -168 -196 -167 -43 0 -45
-1 -17 -9 40 -12 98 -2 126 22 12 10 25 19 28 19 4 0 18 21 31 47 46 86 45 86
109 47 31 -19 63 -34 72 -34 8 0 19 -4 25 -9 5 -5 25 -13 44 -18 31 -8 36 -14
42 -49 4 -21 7 -79 7 -128 1 -114 19 -314 31 -343 9 -21 16 -23 77 -23 81 0
110 7 117 27 5 12 2 13 -11 8 -10 -5 -51 -10 -92 -13 -55 -3 -76 -1 -82 9 -5
8 -9 53 -9 101 0 48 -4 131 -10 185 -5 54 -11 127 -13 163 l-3 64 -68 23 c-38
13 -74 27 -80 32 -6 5 -22 12 -36 16 -14 4 -35 18 -47 31 -20 22 -21 26 -8 51
8 16 18 43 21 61 6 31 26 43 39 22 15 -24 109 -61 171 -67 43 -4 64 -10 64
-19 0 -7 -4 -15 -9 -18 -5 -3 -12 -18 -15 -32 -5 -20 -2 -32 14 -46 l21 -20
-20 -22 c-31 -33 -29 -98 4 -129 23 -21 27 -35 37 -148 6 -68 13 -126 14 -128
2 -2 10 2 19 9 13 11 15 8 15 -21 -1 -28 -2 -31 -11 -16 -13 23 -29 22 -29 -2
0 -24 13 -33 34 -25 13 5 16 26 16 128 0 135 -6 170 -26 162 -7 -3 -16 -1 -19
4 -4 6 3 10 15 10 24 0 48 21 68 59 12 23 11 31 -9 73 -19 40 -20 52 -11 74
10 20 9 30 -3 47 -23 33 -19 56 13 63 49 13 126 51 154 77 l28 26 6 -27 c4
-15 10 -31 14 -37 5 -5 11 -27 15 -47 7 -34 5 -38 -32 -61 -29 -18 -125 -71
-151 -84 -7 -3 -1 -474 6 -492 4 -11 5 92 3 230 l-3 249 38 16 c22 9 62 32 90
50 60 40 67 41 82 12 11 -20 11 -19 6 12 -4 19 -12 46 -19 60 -7 14 -18 48
-23 75 -12 62 -56 226 -77 285 -22 64 -32 160 -15 160 10 0 10 3 0 15 -10 12
-10 18 0 30 26 32 3 23 -37 -14 -62 -58 -125 -84 -216 -91 -49 -3 -81 -2 -85
5 -4 5 -29 21 -56 35 -63 32 -186 151 -186 180 0 5 -4 12 -10 15 -5 3 -10 2
-10 -4z m565 -183 c-3 -7 -22 -24 -43 -38 -20 -14 -39 -28 -42 -32 -10 -13
-120 -25 -153 -18 -28 7 -25 8 23 9 81 2 140 24 188 73 20 20 33 23 27 6z
m-342 -49 c17 -1 18 -2 5 -6 -13 -3 -18 -14 -18 -37 0 -78 169 -150 234 -101
32 24 39 18 34 -35 -6 -62 4 -57 22 11 9 33 23 57 38 67 20 13 23 22 19 54 -6
46 9 51 16 6 15 -83 20 -104 32 -118 18 -23 45 -102 45 -132 0 -15 -10 -38
-22 -51 -28 -30 -88 -67 -108 -67 -9 0 -33 -9 -55 -20 -32 -17 -51 -19 -105
-14 -71 6 -187 41 -208 61 -19 18 145 5 176 -14 29 -18 41 -9 20 14 -9 10 -22
41 -30 68 -9 28 -21 69 -28 93 -7 23 -17 42 -21 42 -4 0 -3 -15 2 -32 16 -52
40 -151 37 -154 -8 -7 -179 13 -189 23 -16 16 10 123 37 148 18 17 23 36 29
120 4 55 10 94 12 88 3 -7 14 -14 26 -14z m297 -46 c21 -18 27 -43 10 -43 -5
0 -10 6 -10 14 0 8 -7 16 -15 20 -8 3 -15 10 -15 16 0 14 7 13 30 -7z m-240
-7 c0 -11 -19 -15 -25 -6 -3 5 1 10 9 10 9 0 16 -2 16 -4z m50 -16 c0 -5 -4
-10 -10 -10 -5 0 -10 5 -10 10 0 6 5 10 10 10 6 0 10 -4 10 -10z m156 -25 c-4
-14 -12 -25 -18 -25 -9 0 -9 3 0 12 7 7 12 21 12 32 0 10 3 17 6 13 4 -3 4
-18 0 -32z m-76 9 c0 -8 -5 -12 -10 -9 -6 4 -8 11 -5 16 9 14 15 11 15 -7z
m45 7 c3 -5 1 -12 -5 -16 -5 -3 -10 1 -10 9 0 18 6 21 15 7z m-155 -31 c0 -5
-5 -10 -11 -10 -5 0 -7 5 -4 10 3 6 8 10 11 10 2 0 4 -4 4 -10z m70 0 c0 -5
-5 -10 -11 -10 -5 0 -7 5 -4 10 3 6 8 10 11 10 2 0 4 -4 4 -10z m36 -395 c-8
-38 0 -45 20 -17 12 15 13 11 14 -34 0 -32 5 -56 14 -63 23 -19 29 -61 11 -87
-29 -44 -125 -24 -125 27 0 10 9 33 20 51 14 24 18 45 14 75 -3 30 -1 42 11
47 20 7 19 23 -2 29 -13 3 -11 5 6 6 21 1 23 -2 17 -34z m-46 -25 c0 -5 -4
-10 -10 -10 -5 0 -10 5 -10 10 0 6 5 10 10 10 6 0 10 -4 10 -10z m80 -274 c0
-9 -30 -14 -35 -6 -4 6 3 10 14 10 12 0 21 -2 21 -4z m-2 -54 c3 -9 -2 -13
-14 -10 -9 1 -19 9 -22 16 -3 9 2 13 14 10 9 -1 19 -9 22 -16z m-4 -53 c-10
-16 -24 -9 -24 12 0 18 2 19 15 9 8 -7 12 -16 9 -21z m6 -49 c0 -11 -7 -20
-15 -20 -8 0 -15 9 -15 20 0 11 7 20 15 20 8 0 15 -9 15 -20z"/>
<path d="M6905 12145 c-22 -8 -41 -15 -42 -15 -2 0 -3 -6 -3 -14 0 -13 4 -13
28 0 15 7 34 14 43 14 8 0 24 7 35 15 19 14 19 14 -1 14 -11 0 -38 -6 -60 -14z"/>
<path d="M6800 11855 c-10 -12 -10 -18 0 -30 16 -19 39 -19 46 0 6 15 -11 45
-26 45 -4 0 -13 -7 -20 -15z"/>
<path d="M7101 12495 c1 -19 18 -51 18 -35 0 8 -4 22 -9 30 -5 8 -9 11 -9 5z"/>
<path d="M7133 12417 c4 -10 7 -26 7 -35 1 -15 2 -15 11 1 8 13 6 22 -7 35
-17 16 -18 16 -11 -1z"/>
<path d="M6391 12404 c0 -11 3 -14 6 -6 3 7 2 16 -1 19 -3 4 -6 -2 -5 -13z"/>
<path d="M7228 12383 c6 -2 18 -2 25 0 6 3 1 5 -13 5 -14 0 -19 -2 -12 -5z"/>
<path d="M6350 12371 c24 -6 25 -11 30 -96 3 -57 7 -78 11 -59 3 17 3 61 1 98
l-4 66 -32 -1 c-29 -1 -30 -1 -6 -8z"/>
<path d="M7306 12321 c-11 -12 -16 -35 -15 -72 0 -39 3 -49 9 -34 5 11 9 35 9
53 1 33 17 42 39 20 19 -19 14 1 -7 28 -18 22 -19 23 -35 5z"/>
<path d="M7445 12240 c27 -12 43 -12 25 0 -8 5 -22 9 -30 9 -10 0 -8 -3 5 -9z"/>
<path d="M7140 12188 c0 -9 4 -19 9 -22 5 -4 12 -24 16 -46 4 -22 10 -40 14
-40 12 0 -12 97 -27 112 -9 9 -12 9 -12 -4z"/>
<path d="M7560 12186 c0 -4 7 -20 15 -35 17 -34 16 -35 -64 -77 -30 -15 -50
-29 -44 -31 15 -5 138 54 154 74 12 15 12 16 -3 10 -13 -5 -19 0 -24 18 -5 22
-34 56 -34 41z"/>
<path d="M6035 12160 c-3 -6 1 -7 9 -4 18 7 21 14 7 14 -6 0 -13 -4 -16 -10z"/>
<path d="M7233 12107 c-28 -14 -47 -59 -39 -89 25 -97 117 -137 193 -85 28 18
33 28 33 60 0 96 -100 157 -187 114z m139 -44 c18 -16 25 -43 10 -43 -14 0
-53 46 -45 53 9 10 14 9 35 -10z"/>
<path d="M7680 12099 c7 -11 14 -18 17 -15 8 8 -5 36 -17 36 -7 0 -7 -6 0 -21z"/>
<path d="M6225 12091 c-11 -5 -32 -21 -47 -36 -23 -23 -28 -37 -29 -79 0 -28
-3 -45 -6 -38 -2 6 -11 12 -18 12 -8 0 -19 8 -24 18 -6 9 -11 12 -11 5 0 -15
49 -50 83 -58 15 -4 30 -11 33 -16 12 -21 81 -9 122 21 53 38 64 83 33 134
-12 19 -28 37 -37 40 -22 8 -75 6 -99 -3z m99 -50 c26 -29 13 -41 -32 -29 -43
12 -57 22 -48 37 11 18 62 13 80 -8z"/>
<path d="M5893 11993 c-7 -3 -13 -9 -13 -15 0 -7 5 -6 14 1 7 6 22 8 32 4 17
-6 72 -41 84 -53 11 -11 131 -90 137 -90 3 0 -17 18 -45 40 -27 22 -55 40 -61
40 -6 0 -11 5 -11 10 0 6 -12 16 -27 23 -16 6 -32 17 -38 23 -12 14 -55 24
-72 17z"/>
<path d="M7560 11919 c-47 -17 -123 -41 -170 -54 l-85 -25 60 6 c64 6 134 25
201 55 23 11 49 19 58 19 9 0 16 4 16 10 0 19 30 -3 45 -33 17 -34 42 -184 55
-332 7 -77 8 -67 6 71 -2 88 -8 169 -13 180 -6 10 -13 31 -17 46 -5 22 -3 26
8 22 9 -3 18 -15 22 -26 3 -11 8 -17 11 -15 11 11 -29 66 -62 86 -20 11 -39
21 -43 20 -4 0 -45 -14 -92 -30z"/>
<path d="M7160 11931 c0 -6 4 -13 10 -16 6 -3 7 1 4 9 -7 18 -14 21 -14 7z"/>
<path d="M7208 11871 c18 -17 43 -31 55 -31 l22 0 -21 13 c-12 6 -37 20 -55
31 l-34 18 33 -31z"/>
<path d="M1570 11331 l0 -561 150 0 150 0 0 210 0 210 73 0 c87 0 144 -23 178
-71 13 -18 60 -103 105 -189 l82 -155 161 -5 c89 -3 161 -3 161 -1 0 11 -184
359 -210 396 -36 52 -86 97 -129 115 l-33 13 51 19 c66 25 134 93 155 155 9
27 16 79 16 122 0 140 -65 227 -202 271 -69 22 -92 24 -390 28 l-318 4 0 -561z
m533 335 c18 -7 41 -23 51 -35 26 -29 33 -115 13 -163 -23 -55 -62 -71 -189
-76 l-108 -5 0 147 0 146 100 0 c63 0 113 -5 133 -14z"/>
<path d="M6017 11873 c-7 -12 11 -101 24 -116 3 -5 8 -2 11 5 7 19 -26 125
-35 111z"/>
<path d="M7523 11840 c-6 -14 -14 -49 -18 -79 -5 -39 -12 -55 -25 -58 -14 -4
-18 -20 -23 -86 -5 -80 -39 -232 -59 -270 -6 -11 -10 -68 -9 -126 1 -58 -3
-162 -9 -231 -10 -126 1 -273 21 -286 17 -10 9 -53 -17 -83 -24 -29 -25 -34
-14 -62 7 -16 10 -32 6 -36 -3 -3 -1 -12 5 -19 23 -28 -3 -34 -152 -34 -122 0
-153 3 -166 15 -10 11 -32 15 -67 14 -28 -1 -64 4 -79 10 -49 19 -105 13 -175
-20 -56 -27 -73 -31 -119 -26 -51 5 -53 5 -53 -19 l0 -24 -159 1 -158 0 -12
25 c-9 20 -8 30 4 47 14 19 13 23 -11 48 -24 25 -24 29 -15 90 11 72 8 154 -9
244 -22 121 -30 183 -35 305 l-6 125 23 -37 c43 -70 45 -47 3 27 -46 81 -73
158 -100 280 -20 95 -38 142 -31 80 4 -29 3 -36 -5 -25 -18 27 -57 117 -64
149 -6 30 -25 44 -25 19 0 -28 53 -155 95 -228 8 -14 15 -37 15 -52 0 -15 4
-29 9 -32 5 -3 12 -22 15 -41 4 -20 18 -57 31 -83 13 -26 20 -49 16 -52 -4 -3
-8 -45 -9 -95 -1 -49 -9 -130 -16 -180 -8 -49 -17 -121 -21 -159 -4 -38 -13
-90 -21 -115 -8 -25 -14 -61 -14 -78 0 -21 -5 -33 -14 -33 -11 0 -62 50 -116
116 -14 18 -15 18 -18 0 -4 -18 108 -138 137 -147 10 -4 14 -44 15 -193 l1
-188 -144 7 c-79 4 -150 9 -156 11 -19 8 -24 193 -9 329 8 66 13 140 13 165
l0 45 -15 -50 c-11 -36 -16 -112 -19 -270 l-4 -220 -25 -8 c-34 -11 -40 -38
-26 -117 6 -36 18 -110 25 -165 25 -169 76 -439 91 -478 3 -9 -1 -83 -10 -164
-30 -291 -31 -271 9 -333 19 -30 41 -67 47 -82 7 -16 16 -28 19 -28 4 0 10
-14 14 -30 5 -23 17 -35 48 -50 68 -33 111 -36 144 -10 l28 22 6 -194 c3 -106
11 -236 18 -288 6 -52 16 -126 21 -165 5 -38 17 -99 25 -135 9 -36 20 -108 26
-160 5 -52 14 -108 19 -124 6 -18 6 -79 0 -175 -10 -136 -1 -385 14 -410 3 -5
-1 -15 -10 -22 -20 -17 -14 -97 22 -278 14 -68 24 -124 22 -125 -2 -2 -39 -8
-83 -15 -209 -33 -242 -40 -265 -50 -25 -11 -24 -11 5 -6 77 12 320 45 339 45
27 0 61 -65 71 -136 12 -77 12 -78 39 -146 38 -93 35 -177 -8 -278 -4 -10 4
-21 25 -32 l31 -18 -21 -26 c-16 -20 -21 -41 -21 -86 0 -54 -3 -61 -40 -102
-22 -24 -40 -48 -40 -53 0 -10 -19 -28 -106 -102 -33 -28 -99 -65 -135 -76
-48 -14 -88 -37 -94 -53 -4 -9 -11 -51 -16 -92 -4 -41 -9 -84 -11 -95 -5 -35
58 -49 253 -53 107 -2 192 1 216 7 28 8 59 31 106 77 59 60 69 66 96 61 22 -5
36 -1 48 12 10 10 44 28 76 41 32 13 63 30 69 37 17 20 13 194 -5 229 -29 57
-46 633 -22 754 2 14 8 50 12 80 l8 55 108 5 c67 3 112 1 117 -5 4 -5 10 -41
13 -78 2 -38 10 -74 16 -80 6 -6 11 -43 11 -82 0 -40 5 -76 11 -82 7 -7 15
-71 20 -154 7 -118 6 -144 -6 -156 -12 -11 -15 -47 -15 -168 0 -85 4 -164 9
-177 5 -13 16 -57 25 -99 17 -77 33 -99 91 -124 11 -5 108 -9 215 -10 127 -1
212 -6 243 -15 68 -18 347 -9 400 13 64 27 62 55 -8 162 -49 75 -65 87 -163
121 -97 35 -274 126 -299 155 -55 64 -94 133 -88 156 4 17 -1 30 -20 47 -14
13 -25 32 -26 42 0 18 -1 17 -10 -2 -10 -19 -89 -50 -89 -34 0 4 9 10 19 13
15 3 21 17 26 53 3 27 10 74 15 104 6 30 14 93 20 140 5 47 18 117 28 155 14
51 16 74 8 84 -7 10 -6 16 5 25 8 6 18 19 22 30 7 16 15 18 70 14 60 -6 61 -5
27 7 -19 8 -48 14 -64 14 -23 1 -27 4 -21 19 10 26 35 224 36 291 2 64 -4 81
-28 81 -14 0 -15 12 -10 88 22 300 37 440 51 468 13 25 15 69 14 250 -3 300
21 824 38 824 41 0 164 86 164 115 0 7 11 33 25 59 25 46 25 50 25 290 0 165
4 246 11 253 12 12 31 143 50 338 6 61 9 181 7 269 l-4 159 -29 23 -30 24 -6
167 c-3 93 -7 173 -9 178 -2 6 0 22 4 37 5 17 2 46 -9 80 -13 40 -20 112 -26
293 -11 283 -11 282 -7 320 2 22 -2 30 -16 33 -14 3 -16 0 -9 -13 6 -9 7 -33
4 -54 -4 -20 -3 -139 2 -265 6 -171 12 -246 26 -298 13 -48 16 -79 11 -99 -5
-17 -3 -70 6 -134 8 -58 13 -142 12 -187 l-3 -82 -35 -3 c-66 -6 -205 -23
-241 -29 -30 -5 -38 -3 -43 12 -3 11 -10 116 -16 234 -5 118 -14 231 -20 250
-6 19 -20 99 -31 176 -16 115 -18 153 -10 205 6 35 11 93 11 129 0 39 8 85 19
115 25 66 39 127 47 209 4 41 11 66 19 66 15 0 43 128 34 160 l-6 25 -10 -25z
m-1334 -964 c13 -17 21 -185 12 -256 -9 -61 -8 -66 14 -87 20 -17 22 -23 11
-32 -16 -14 -20 -148 -7 -295 6 -75 5 -108 -4 -131 -34 -80 -75 -341 -86 -544
0 -9 -4 -4 -9 11 -5 16 -4 139 0 275 13 352 12 399 -4 415 -19 19 -41 294 -24
304 12 8 10 72 -3 80 -6 4 -8 19 -5 38 4 17 13 69 21 116 8 47 19 105 24 130
6 25 10 63 11 86 0 23 6 56 12 75 12 32 13 28 20 -70 4 -57 12 -109 17 -115z
m1236 -79 c4 -29 12 -61 17 -71 6 -11 10 -67 10 -125 -1 -58 2 -155 7 -216 7
-93 6 -112 -7 -121 -13 -10 -14 -21 -3 -88 7 -43 10 -80 7 -83 -3 -4 -6 0 -6
7 0 7 -7 21 -16 31 -12 13 -17 47 -20 146 -2 70 -6 139 -9 153 -2 14 0 32 5
39 4 8 2 28 -6 47 -20 47 -17 80 8 114 l22 30 -22 67 c-15 46 -22 91 -21 138
l0 70 14 -43 c7 -24 16 -67 20 -95z m-469 -342 c54 -45 84 -108 84 -179 l0
-59 -21 27 c-11 14 -29 26 -39 26 -19 0 -30 19 -30 50 0 10 -15 35 -34 55 -28
30 -41 36 -67 33 -49 -5 -50 -28 -1 -28 32 0 43 -5 57 -26 28 -43 30 -88 5
-128 -18 -30 -28 -36 -55 -36 -50 0 -64 8 -85 51 -22 41 -26 84 -10 94 5 3 15
15 20 26 9 15 7 19 -5 19 -25 0 -57 -60 -51 -98 4 -27 0 -35 -22 -49 -15 -10
-30 -22 -34 -27 -13 -19 -22 5 -26 68 -5 74 15 122 71 173 40 37 60 42 144 39
52 -2 68 -7 99 -31z m89 15 c-3 -5 -17 -10 -30 -10 -13 0 -27 5 -30 10 -4 6 8
10 30 10 22 0 34 -4 30 -10z m775 -305 c0 -59 -4 -105 -9 -105 -6 0 -10 -28
-10 -62 -1 -35 -5 -88 -10 -118 -7 -41 -9 -3 -9 155 1 197 5 235 29 235 5 0 9
-47 9 -105z m-1993 -20 c-7 -14 -15 -25 -19 -25 -5 0 -8 -7 -8 -15 0 -8 5 -15
10 -15 6 0 10 -57 9 -152 -1 -124 -3 -144 -10 -103 -5 28 -14 59 -19 70 -5 11
-11 75 -13 143 l-4 122 32 0 c32 0 33 -1 22 -25z m1574 -3 c39 -46 58 -111 79
-267 11 -88 28 -190 36 -226 12 -51 14 -74 5 -105 -9 -32 -8 -41 4 -50 22 -17
19 -33 -21 -99 -33 -54 -37 -70 -46 -165 -12 -136 0 -243 29 -254 22 -9 41 11
49 50 10 52 24 40 26 -21 1 -30 2 -65 2 -77 1 -18 -11 -29 -49 -48 -27 -14
-51 -33 -53 -42 -4 -21 33 -38 79 -38 l29 0 0 -67 c0 -38 -7 -194 -15 -348
-16 -305 -18 -468 -7 -530 5 -23 3 -61 -4 -90 -13 -53 -49 -134 -62 -136 -4
-1 -33 -3 -64 -4 -58 -1 -98 -22 -98 -52 0 -17 15 -17 30 2 15 18 37 20 43 3
4 -10 7 -10 18 0 7 6 25 12 39 12 14 0 32 6 39 13 11 10 12 -22 6 -175 -9
-241 -11 -249 -55 -261 -19 -5 -102 -7 -183 -4 -191 7 -187 4 -187 141 0 56 5
119 10 141 27 108 39 197 29 222 -5 14 -7 45 -4 67 5 34 2 47 -18 74 -26 34
-25 63 3 136 14 37 12 120 -5 186 -12 49 -13 51 -14 20 -1 -19 4 -62 9 -95 6
-39 6 -63 0 -69 -6 -6 -10 -20 -10 -33 0 -12 -7 -43 -16 -69 -15 -44 -15 -47
8 -80 13 -19 26 -34 31 -34 13 0 8 -23 -10 -42 -16 -18 -16 -21 1 -53 12 -21
16 -44 13 -62 -25 -117 -37 -193 -48 -293 -8 -69 -18 -122 -27 -132 -12 -14
-14 -55 -11 -231 l4 -215 -50 -6 c-27 -3 -76 -6 -109 -6 l-58 0 6 78 c7 77 -6
301 -19 335 -4 9 -13 17 -20 17 -16 0 -25 55 -25 164 0 89 -17 214 -46 338 -8
36 -14 96 -13 132 1 38 -3 71 -9 79 -9 11 -8 22 4 47 15 29 15 35 1 64 l-16
31 6 -32 c4 -23 -1 -40 -17 -63 -22 -30 -19 -46 11 -70 4 -3 9 -54 11 -115 3
-60 13 -148 21 -195 20 -108 39 -372 28 -383 -19 -19 -95 -27 -273 -27 -133 0
-189 3 -194 12 -11 17 -18 528 -8 528 5 0 31 -25 59 -55 27 -30 56 -55 63 -55
7 0 21 -7 30 -16 10 -11 17 -13 20 -6 5 17 -51 83 -66 77 -7 -3 -22 10 -33 30
-12 19 -25 35 -29 35 -13 0 -47 63 -54 101 -3 19 -12 77 -20 129 -8 52 -19
109 -24 127 -6 18 -13 63 -17 100 -3 37 -13 113 -20 168 -18 125 -22 512 -6
528 15 15 14 44 -1 49 -10 4 -10 13 1 44 19 57 25 275 11 364 -19 115 -23 227
-11 313 6 42 16 112 21 155 6 42 16 106 24 142 8 36 19 91 26 122 19 94 20 95
203 102 l158 6 11 -31 11 -31 63 6 c47 5 77 2 114 -10 63 -20 152 -14 182 13
13 12 42 20 82 23 58 5 61 6 64 33 l3 27 137 0 c121 0 139 -2 153 -18z m-321
-7 c-3 -5 -18 -10 -34 -12 -24 -3 -27 -1 -16 12 12 15 59 15 50 0z m-390 -20
c11 -13 6 -15 -34 -15 -34 0 -46 4 -46 15 0 10 10 15 34 15 18 0 39 -7 46 -15z
m-863 -367 c-3 -8 -6 -5 -6 6 -1 11 2 17 5 13 3 -3 4 -12 1 -19z m1953 -193
c0 -8 -7 -15 -15 -15 -26 0 -18 20 13 29 1 1 2 -6 2 -14z m-1650 -100 c0 -9
-6 -12 -15 -9 -8 4 -12 10 -9 15 8 14 24 10 24 -6z m1475 -482 c-6 -24 -14
-40 -18 -37 -9 10 -9 249 1 258 14 15 29 -174 17 -221z m-1785 157 c0 -22 -3
-40 -8 -40 -4 0 -6 18 -4 40 2 22 6 40 8 40 2 0 4 -18 4 -40z m221 17 c24 -18
31 -50 20 -98 -11 -50 3 -127 25 -136 16 -6 7 -33 -11 -33 -7 0 -23 8 -35 18
-28 23 -51 141 -43 215 6 48 16 56 44 34z m1443 -2053 c-2 -19 -8 -61 -14 -92
-5 -30 -10 -73 -10 -93 0 -21 -4 -48 -9 -61 -5 -13 -15 -59 -22 -103 -19 -119
-23 -73 -5 57 9 62 19 161 22 221 6 91 10 107 24 107 13 0 16 -8 14 -36z
m-1109 -15 c5 -5 17 -9 27 -9 16 0 18 -9 16 -82 -1 -97 20 -354 32 -383 5 -11
12 -58 15 -105 4 -47 13 -103 21 -125 16 -46 18 -75 5 -75 -5 0 -16 -18 -25
-40 -15 -37 -38 -52 -50 -32 -3 5 4 26 15 47 22 40 22 120 1 134 -5 3 -13 22
-17 41 -4 19 -10 40 -14 45 -6 10 -30 105 -57 230 -27 123 -43 228 -43 287 -1
31 -6 60 -12 64 -8 4 -7 9 2 15 15 9 69 1 84 -12z m1022 -486 c-3 -10 -5 -2
-5 17 0 19 2 27 5 18 2 -10 2 -26 0 -35z m-10 -70 c-3 -10 -5 -4 -5 12 0 17 2
24 5 18 2 -7 2 -21 0 -30z m-30 -180 c-3 -10 -5 -4 -5 12 0 17 2 24 5 18 2 -7
2 -21 0 -30z m28 -114 c11 -16 1 -19 -13 -3 -7 8 -8 14 -3 14 5 0 13 -5 16
-11z m-55 -99 c-8 -5 -19 -10 -25 -10 -5 0 -3 5 5 10 8 5 20 10 25 10 6 0 3
-5 -5 -10z m-874 -148 c-10 -2 -22 0 -28 6 -6 6 0 7 19 4 21 -5 23 -7 9 -10z
m1126 -80 c4 -11 107 -71 168 -99 103 -46 99 -44 60 -37 -19 4 -67 22 -107 40
-40 19 -75 34 -78 34 -4 0 -13 6 -20 13 -8 6 -21 18 -30 25 -8 7 -15 17 -15
22 0 12 17 13 22 2z m443 -240 c-9 -9 -35 8 -35 24 0 16 2 16 20 -1 11 -10 18
-20 15 -23z m-1900 -67 c39 -7 86 -18 105 -23 32 -9 29 -10 -35 -11 -38 0 -86
3 -105 8 -19 5 -48 12 -63 15 -32 7 -27 26 6 26 12 -1 54 -7 92 -15z"/>
<path d="M6829 10010 c-1 -5 -3 -14 -4 -20 -1 -5 -3 -34 -4 -64 l-1 -54 -60
-7 c-33 -4 -63 -12 -66 -17 -5 -8 16 -9 67 -4 41 4 75 9 77 10 7 7 7 166 0
166 -5 0 -9 -4 -9 -10z"/>
<path d="M6558 9833 c12 -2 30 -2 40 0 9 3 -1 5 -23 4 -22 0 -30 -2 -17 -4z"/>
<path d="M6820 9802 c0 -18 6 -32 16 -36 12 -5 15 1 12 26 -4 42 -28 50 -28
10z"/>
<path d="M6658 9813 c12 -2 30 -2 40 0 9 3 -1 5 -23 4 -22 0 -30 -2 -17 -4z"/>
<path d="M6837 9530 c-5 -19 -7 -53 -6 -75 2 -22 2 -59 1 -82 l-2 -41 -61 5
c-39 4 -82 16 -117 34 -56 29 -84 30 -47 2 27 -20 114 -60 148 -69 20 -5 26
-11 22 -24 -3 -9 1 -23 9 -29 12 -10 13 -19 5 -39 -6 -15 -12 -49 -15 -77 -2
-27 -8 -90 -14 -140 -5 -49 -12 -144 -15 -210 -3 -66 -10 -143 -16 -171 -5
-29 -16 -121 -24 -205 -8 -85 -22 -205 -30 -268 -8 -63 -13 -117 -10 -119 2
-2 6 13 10 34 3 22 10 62 16 89 15 74 38 263 49 405 6 69 16 170 24 225 8 55
18 167 22 249 4 92 12 163 21 184 13 30 12 36 -2 52 -12 14 -13 19 -3 27 14
11 85 27 75 17 -3 -4 -1 -16 5 -28 13 -22 18 -68 37 -296 17 -204 46 -368 116
-650 19 -74 34 -121 34 -105 0 17 -4 48 -9 70 -6 22 -17 74 -25 115 -8 41 -28
140 -44 220 -19 97 -34 220 -46 370 -9 133 -22 238 -30 257 -20 45 -2 79 45
87 43 7 120 43 120 56 0 6 -12 4 -27 -4 -16 -7 -52 -17 -80 -21 -36 -5 -53
-12 -53 -21 0 -9 -11 -14 -29 -14 -32 0 -31 -3 -44 185 l-3 40 -7 -35z"/>
<path d="M7295 9520 c-19 -8 -19 -9 2 -9 12 -1 25 4 28 9 7 12 -2 12 -30 0z"/>
<path d="M7110 9459 c-92 -32 -119 -49 -79 -49 14 0 29 4 35 9 5 5 41 18 79
31 87 27 110 39 75 39 -14 0 -63 -13 -110 -30z"/>
<path d="M6515 9450 c3 -5 11 -10 16 -10 6 0 7 5 4 10 -3 6 -11 10 -16 10 -6
0 -7 -4 -4 -10z"/>
<path d="M6230 9365 c0 -8 17 -14 45 -17 25 -2 45 0 45 3 0 3 -20 10 -45 16
-35 8 -45 7 -45 -2z"/>
<path d="M7145 9370 c-81 -10 -140 -27 -155 -45 -10 -12 -9 -15 4 -15 9 0 30
7 46 15 16 8 68 18 117 21 48 4 115 13 148 20 l60 12 -80 0 c-44 0 -107 -4
-140 -8z"/>
<path d="M6451 9346 c11 -9 90 -16 84 -6 -3 5 -25 10 -47 10 -23 0 -39 -2 -37
-4z"/>
<path d="M6299 9297 c-7 -7 -28 -11 -50 -9 -20 2 -46 -1 -56 -8 -14 -9 7 -10
92 -5 61 3 128 9 150 12 l40 7 -45 7 c-71 12 -118 10 -131 -4z"/>
<path d="M6705 9280 c-3 -5 -1 -10 4 -10 6 0 11 5 11 10 0 6 -2 10 -4 10 -3 0
-8 -4 -11 -10z"/>
<path d="M6463 7523 c9 -2 23 -2 30 0 6 3 -1 5 -18 5 -16 0 -22 -2 -12 -5z"/>
<path d="M6330 7040 c0 -5 5 -10 10 -10 6 0 10 5 10 10 0 6 -4 10 -10 10 -5 0
-10 -4 -10 -10z"/>
<path d="M6375 7030 c-3 -5 -1 -10 4 -10 6 0 11 5 11 10 0 6 -2 10 -4 10 -3 0
-8 -4 -11 -10z"/>
<path d="M6320 7000 c0 -5 5 -10 10 -10 6 0 10 5 10 10 0 6 -4 10 -10 10 -5 0
-10 -4 -10 -10z"/>
<path d="M6360 7000 c0 -5 5 -10 10 -10 6 0 10 5 10 10 0 6 -4 10 -10 10 -5 0
-10 -4 -10 -10z"/>
<path d="M6375 6960 c-3 -5 -1 -10 4 -10 6 0 11 5 11 10 0 6 -2 10 -4 10 -3 0
-8 -4 -11 -10z"/>
<path d="M6390 6829 c0 -5 5 -7 10 -4 6 3 10 8 10 11 0 2 -4 4 -10 4 -5 0 -10
-5 -10 -11z"/>
<path d="M6360 6780 c0 -5 5 -10 11 -10 5 0 7 5 4 10 -3 6 -8 10 -11 10 -2 0
-4 -4 -4 -10z"/>
<path d="M6390 6750 c0 -5 5 -10 11 -10 5 0 7 5 4 10 -3 6 -8 10 -11 10 -2 0
-4 -4 -4 -10z"/>
<path d="M6360 6720 c0 -5 5 -10 10 -10 6 0 10 5 10 10 0 6 -4 10 -10 10 -5 0
-10 -4 -10 -10z"/>
<path d="M6390 6689 c0 -5 5 -7 10 -4 6 3 10 8 10 11 0 2 -4 4 -10 4 -5 0 -10
-5 -10 -11z"/>
<path d="M6405 6650 c3 -5 8 -10 11 -10 2 0 4 5 4 10 0 6 -5 10 -11 10 -5 0
-7 -4 -4 -10z"/>
<path d="M6390 6609 c0 -5 5 -7 10 -4 6 3 10 8 10 11 0 2 -4 4 -10 4 -5 0 -10
-5 -10 -11z"/>
<path d="M7563 11810 c0 -30 2 -43 4 -27 2 15 2 39 0 55 -2 15 -4 2 -4 -28z"/>
<path d="M7450 11765 c0 -8 4 -15 10 -15 5 0 7 7 4 15 -4 8 -8 15 -10 15 -2 0
-4 -7 -4 -15z"/>
<path d="M5796 11638 c-11 -45 -22 -105 -26 -133 -4 -27 -17 -86 -29 -129 -12
-44 -21 -93 -19 -110 3 -30 7 -13 57 226 19 93 31 108 32 42 2 -66 0 -76 -18
-89 -11 -8 -13 -21 -8 -48 4 -21 11 -40 16 -43 5 -3 7 -9 4 -14 -8 -12 -34
-234 -35 -300 -3 -116 0 -200 8 -200 4 0 8 62 8 138 -1 92 6 172 18 245 16 90
17 116 7 159 -9 42 -9 54 3 67 12 13 13 39 8 144 l-7 129 -19 -84z"/>
<path d="M7353 11263 c-4 -10 -11 -21 -17 -25 -7 -5 -5 -8 5 -8 9 0 21 11 27
25 7 16 8 25 1 25 -5 0 -13 -8 -16 -17z"/>
<path d="M6735 11205 c-49 -7 -91 -14 -92 -14 -2 -1 -3 -8 -3 -16 0 -17 0 -17
58 -6 23 5 42 5 42 0 0 -14 193 2 210 17 12 12 6 14 -42 14 -31 0 -60 5 -63
10 -3 6 -9 9 -13 9 -4 -1 -47 -7 -97 -14z"/>
<path d="M6595 11170 c-3 -5 -1 -10 4 -10 6 0 11 5 11 10 0 6 -2 10 -4 10 -3
0 -8 -4 -11 -10z"/>
<path d="M5692 11100 c0 -14 2 -19 5 -12 2 6 2 18 0 25 -3 6 -5 1 -5 -13z"/>
<path d="M5662 10930 c0 -14 2 -19 5 -12 2 6 2 18 0 25 -3 6 -5 1 -5 -13z"/>
<path d="M7952 10880 c0 -19 2 -27 5 -17 2 9 2 25 0 35 -3 9 -5 1 -5 -18z"/>
<path d="M6485 10824 c85 -76 113 -87 253 -92 129 -4 208 3 182 18 -8 4 -86
10 -173 12 -97 2 -161 8 -165 15 -4 5 -16 13 -27 17 -11 3 -37 22 -57 41 -20
19 -43 35 -50 35 -7 0 10 -21 37 -46z"/>
<path d="M7962 10790 c0 -19 2 -27 5 -17 2 9 2 25 0 35 -3 9 -5 1 -5 -18z"/>
<path d="M5850 10802 c0 -4 11 -23 25 -42 30 -40 33 -29 5 18 -19 31 -30 40
-30 24z"/>
<path d="M5626 10761 c-4 -24 -5 -46 -2 -48 7 -7 19 63 14 79 -3 7 -8 -7 -12
-31z"/>
<path d="M7670 10757 c0 -15 -28 -71 -53 -107 -19 -27 -23 -55 -7 -45 35 22
94 165 69 165 -5 0 -9 -6 -9 -13z"/>
<path d="M5612 10663 c-6 -15 -18 -71 -26 -123 -14 -83 -22 -144 -42 -315 -7
-70 -43 -308 -60 -401 -19 -104 -42 -268 -54 -374 -4 -41 -15 -113 -24 -159
-9 -46 -16 -113 -16 -150 0 -36 -5 -97 -11 -136 -16 -109 -39 -365 -38 -415
l1 -45 8 55 c4 30 15 132 24 225 9 94 21 199 26 235 6 36 14 115 20 175 12
122 33 283 55 420 8 50 19 124 25 165 5 41 16 120 24 175 8 55 22 152 30 215
9 63 23 153 31 200 47 286 50 312 27 253z"/>
<path d="M6509 10636 c-38 -7 -75 -20 -85 -31 -18 -18 -18 -18 10 -11 55 14
191 26 289 26 79 0 97 3 97 15 0 13 -20 15 -122 14 -68 -1 -153 -7 -189 -13z"/>
<path d="M6878 10633 c7 -3 16 -2 19 1 4 3 -2 6 -13 5 -11 0 -14 -3 -6 -6z"/>
<path d="M7285 10623 c-27 -8 -72 -19 -100 -25 -71 -14 -71 -21 0 -13 59 7
185 42 185 50 0 8 -33 4 -85 -12z"/>
<path d="M7218 10483 c6 -2 18 -2 25 0 6 3 1 5 -13 5 -14 0 -19 -2 -12 -5z"/>
<path d="M8033 10145 c0 -44 2 -61 4 -37 2 23 2 59 0 80 -2 20 -4 1 -4 -43z"/>
<path d="M2875 8808 c17 -3517 22 -5698 14 -5751 -44 -278 -276 -467 -529
-429 -136 20 -245 94 -297 201 -24 47 -28 69 -28 136 0 69 4 88 30 140 41 82
104 125 182 125 106 0 168 -57 136 -125 -8 -17 -30 -40 -49 -50 -19 -10 -34
-24 -34 -31 0 -21 58 -46 89 -39 38 8 91 65 101 108 32 146 -120 271 -288 237
-150 -31 -253 -155 -269 -327 -16 -168 79 -334 237 -417 218 -115 461 -77 636
98 83 82 145 199 164 306 7 36 16 72 20 81 8 15 -5 4933 -16 6347 l-6 742 -50
0 -49 0 6 -1352z"/>
<path d="M8067 9700 c6 -250 20 -663 32 -905 5 -104 10 -273 10 -375 0 -102 8
-322 16 -490 8 -168 19 -404 25 -525 12 -271 32 -512 59 -692 l7 -53 -75 -1
c-167 -1 -318 2 -351 6 -32 5 -33 5 -10 -6 14 -6 115 -13 228 -16 147 -4 207
-10 217 -19 7 -7 16 -38 20 -69 3 -31 13 -73 21 -93 l14 -37 -5 35 c-27 168
-36 235 -50 370 -9 85 -22 205 -30 265 -8 61 -19 240 -26 400 -6 159 -12 293
-15 296 -2 4 -9 200 -14 435 -6 236 -15 479 -20 539 -5 61 -12 227 -15 370 -3
143 -13 334 -21 425 -8 91 -16 203 -18 250 -2 47 -1 -3 1 -110z"/>
<path d="M11316 8529 c79 -159 152 -288 185 -331 16 -20 52 -48 79 -61 l51
-25 -53 -24 c-62 -29 -110 -73 -141 -132 -18 -34 -22 -57 -22 -136 0 -87 3
-100 30 -149 48 -87 138 -133 292 -151 49 -5 199 -10 336 -10 l247 0 0 565 0
565 -150 0 -150 0 0 -215 0 -215 -67 0 c-76 0 -133 22 -171 62 -12 14 -63 101
-111 194 l-89 169 -161 3 -161 2 56 -111z m704 -664 l0 -145 -87 0 c-105 0
-157 13 -189 47 -30 33 -40 100 -23 155 12 35 22 47 59 66 37 18 60 22 142 22
l98 0 0 -145z"/>
<path d="M5322 8405 c0 -16 2 -22 5 -12 2 9 2 23 0 30 -3 6 -5 -1 -5 -18z"/>
<path d="M5310 8307 c0 -24 -4 -68 -10 -98 -13 -74 -42 -531 -38 -599 2 -30 9
55 17 190 7 135 17 261 21 280 11 46 25 270 16 270 -3 0 -6 -19 -6 -43z"/>
<path d="M5244 7195 c0 -82 2 -115 3 -72 2 43 2 110 0 150 -1 40 -3 5 -3 -78z"/>
<path d="M8533 7180 c0 -25 2 -35 4 -22 2 12 2 32 0 45 -2 12 -4 2 -4 -23z"/>
<path d="M11420 6980 l0 -110 265 0 265 0 0 -130 0 -130 -245 0 -246 0 3 -107
3 -108 243 -3 242 -2 0 -105 0 -105 -260 0 -261 0 3 -107 3 -108 408 0 c224 0
407 3 407 8 0 4 0 257 0 562 l0 555 -415 0 -415 0 0 -110z"/>
<path d="M5243 7000 c0 -25 2 -35 4 -22 2 12 2 32 0 45 -2 12 -4 2 -4 -23z"/>
<path d="M5233 6785 c0 -27 2 -38 4 -22 2 15 2 37 0 50 -2 12 -4 0 -4 -28z"/>
<path d="M5622 6710 c-1 -48 2 -59 8 -43 5 13 5 41 1 65 -9 42 -9 41 -9 -22z"/>
<path d="M7640 6736 c0 -2 9 -6 20 -9 11 -3 18 -1 14 4 -5 9 -34 13 -34 5z"/>
<path d="M7709 6701 c13 -12 28 -21 34 -21 12 0 11 0 -28 24 l-30 17 24 -20z"/>
<path d="M5858 6653 c7 -3 16 -2 19 1 4 3 -2 6 -13 5 -11 0 -14 -3 -6 -6z"/>
<path d="M5638 6623 c6 -2 18 -2 25 0 6 3 1 5 -13 5 -14 0 -19 -2 -12 -5z"/>
<path d="M8488 6485 c-20 -19 -41 -35 -47 -35 -5 0 -12 -4 -15 -9 -15 -24 36
5 70 40 47 48 42 51 -8 4z"/>
<path d="M11210 5526 c0 -8 132 -140 293 -293 160 -152 292 -280 292 -284 0
-4 -443 -424 -549 -520 -6 -5 67 -9 167 -9 l177 0 210 198 c116 108 215 199
220 200 6 2 10 -74 10 -197 l0 -201 150 0 150 0 0 560 0 560 -150 0 -150 0 -2
-221 -3 -221 -234 221 -234 221 -174 0 c-144 0 -173 -2 -173 -14z"/>
<path d="M11745 4010 c-246 -27 -421 -173 -482 -402 -23 -86 -22 -271 1 -358
69 -255 281 -400 586 -400 312 0 526 153 591 420 19 77 16 260 -4 338 -53 199
-192 336 -392 385 -77 20 -211 27 -300 17z m221 -225 c53 -22 110 -81 140
-147 28 -60 29 -69 29 -208 l0 -145 -34 -68 c-54 -108 -132 -157 -251 -157
-119 0 -200 51 -252 158 -33 66 -33 69 -33 207 0 165 14 218 77 290 45 51 80
72 141 85 50 10 140 3 183 -15z"/>
<path d="M9295 3313 c-16 -1 -1105 -7 -2420 -13 -1314 -7 -2460 -16 -2545 -20
-85 -5 -207 -18 -270 -30 -142 -25 -279 -28 -339 -6 -59 22 -90 20 -177 -9
-244 -82 -394 -284 -394 -530 0 -146 47 -264 144 -360 121 -121 270 -158 431
-108 90 28 160 87 203 168 23 43 27 62 27 136 0 78 -3 90 -30 135 -71 113
-194 138 -277 54 -46 -45 -51 -92 -16 -130 21 -22 22 -23 32 -4 6 10 25 33 42
51 51 53 102 41 135 -30 54 -121 -23 -257 -166 -291 -62 -15 -155 -8 -209 17
-147 67 -225 211 -213 395 12 204 175 383 392 431 34 8 532 14 1590 21 847 5
2291 14 3209 20 919 6 1671 12 1673 14 2 1 0 24 -3 50 l-7 47 -391 -3 c-215
-1 -404 -4 -421 -5z"/>
<path d="M12075 2749 c-181 -20 -293 -94 -347 -228 -23 -56 -23 -61 -26 -628
l-3 -573 151 0 150 0 0 533 c1 560 2 579 47 629 28 32 93 58 146 58 l47 0 0
110 0 110 -47 -1 c-27 -1 -79 -5 -118 -10z"/>
<path d="M13923 1740 c0 -36 2 -50 4 -32 2 17 2 47 0 65 -2 17 -4 3 -4 -33z"/>
<path d="M13903 1730 c0 -25 2 -35 4 -22 2 12 2 32 0 45 -2 12 -4 2 -4 -23z"/>
<path d="M13791 1674 c0 -11 3 -14 6 -6 3 7 2 16 -1 19 -3 4 -6 -2 -5 -13z"/>
<path d="M13912 1630 c0 -19 2 -27 5 -17 2 9 2 25 0 35 -3 9 -5 1 -5 -18z"/>
<path d="M14090 1546 c0 -148 -50 -375 -120 -543 -50 -121 -146 -284 -223
-379 -60 -75 -208 -223 -272 -271 -254 -194 -550 -307 -875 -333 l-105 -9 115
5 c395 14 819 224 1094 539 180 208 309 466 366 735 20 95 39 320 27 320 -4 0
-7 -29 -7 -64z"/>
<path d="M13902 1545 c0 -16 2 -22 5 -12 2 9 2 23 0 30 -3 6 -5 -1 -5 -18z"/>
<path d="M13885 1480 c-4 -17 -5 -34 -2 -36 2 -3 7 10 11 27 8 42 0 50 -9 9z"/>
<path d="M13861 1379 c-7 -22 -11 -43 -8 -45 2 -2 9 14 16 37 7 22 11 43 8 45
-2 2 -9 -14 -16 -37z"/>
<path d="M13824 1304 c4 -11 -1 -40 -9 -65 -9 -24 -12 -39 -7 -34 14 16 45
106 38 112 -3 4 -6 0 -6 -8 0 -12 -2 -11 -11 1 -8 12 -9 11 -5 -6z"/>
<path d="M13767 1143 c3 -7 6 -13 8 -13 2 0 5 6 8 13 3 8 -1 14 -8 14 -7 0
-11 -6 -8 -14z"/>
<path d="M13716 1028 l-18 -33 21 25 c18 22 26 40 18 40 -1 0 -11 -15 -21 -32z"/>
<path d="M13655 929 c-4 -6 -5 -12 -2 -15 2 -3 7 2 10 11 7 17 1 20 -8 4z"/>
<path d="M13374 818 l-29 -33 33 29 c30 28 37 36 29 36 -2 0 -16 -15 -33 -32z"/>
<path d="M13555 819 c-3 -4 2 -6 10 -5 21 3 28 13 10 13 -9 0 -18 -4 -20 -8z"/>
<path d="M13529 763 c-13 -16 -12 -17 4 -4 9 7 17 15 17 17 0 8 -8 3 -21 -13z"/>
<path d="M13499 723 c-13 -16 -12 -17 4 -4 16 13 21 21 13 21 -2 0 -10 -8 -17
-17z"/>
<path d="M13269 713 c-13 -16 -12 -17 4 -4 16 13 21 21 13 21 -2 0 -10 -8 -17
-17z"/>
<path d="M13419 643 c-13 -16 -12 -17 4 -4 16 13 21 21 13 21 -2 0 -10 -8 -17
-17z"/>
<path d="M790 575 c30 -30 57 -55 59 -55 3 0 -19 25 -49 55 -30 30 -57 55 -59
55 -3 0 19 -25 49 -55z"/>
<path d="M13379 603 c-13 -16 -12 -17 4 -4 9 7 17 15 17 17 0 8 -8 3 -21 -13z"/>
<path d="M13339 598 c0 -2 -2 -11 -4 -21 -3 -15 -1 -16 11 -6 7 6 11 15 8 20
-5 9 -13 12 -15 7z"/>
<path d="M929 440 c246 -243 640 -414 981 -425 l105 -4 -105 9 c-207 17 -423
76 -594 162 -145 72 -342 210 -330 229 3 5 2 9 -3 8 -22 -4 -34 2 -27 14 4 6
3 9 -1 4 -5 -4 -27 10 -50 30 -23 21 -12 9 24 -27z"/>
<path d="M1020 396 c0 -2 8 -10 18 -17 15 -13 16 -12 3 4 -13 16 -21 21 -21
13z"/>
<path d="M13069 383 c-13 -16 -12 -17 4 -4 9 7 17 15 17 17 0 8 -8 3 -21 -13z"/>
<path d="M1097 349 c7 -7 15 -10 18 -7 3 3 -2 9 -12 12 -14 6 -15 5 -6 -5z"/>
<path d="M13000 350 c-9 -6 -10 -10 -3 -10 6 0 15 5 18 10 8 12 4 12 -15 0z"/>
<path d="M1142 341 c-11 -7 -11 -9 0 -14 9 -3 15 1 15 9 0 8 -1 14 -1 14 -1 0
-7 -4 -14 -9z"/>
<path d="M12953 335 c0 -7 6 -11 14 -8 7 3 13 6 13 8 0 2 -6 5 -13 8 -8 3 -14
-1 -14 -8z"/>
<path d="M12428 313 c7 -3 16 -2 19 1 4 3 -2 6 -13 5 -11 0 -14 -3 -6 -6z"/>
<path d="M1230 292 c8 -5 26 -13 40 -16 17 -5 20 -4 10 2 -8 5 -26 13 -40 16
-17 5 -20 4 -10 -2z"/>
<path d="M12845 285 c-25 -12 -26 -14 -5 -9 28 7 60 23 45 23 -5 0 -23 -6 -40
-14z"/>
<path d="M1345 250 c11 -5 27 -9 35 -9 9 0 8 4 -5 9 -11 5 -27 9 -35 9 -9 0
-8 -4 5 -9z"/>
<path d="M12735 250 c-13 -5 -14 -9 -5 -9 8 0 24 4 35 9 13 5 14 9 5 9 -8 0
-24 -4 -35 -9z"/>
<path d="M1448 223 c7 -3 16 -2 19 1 4 3 -2 6 -13 5 -11 0 -14 -3 -6 -6z"/>
<path d="M12648 223 c7 -3 16 -2 19 1 4 3 -2 6 -13 5 -11 0 -14 -3 -6 -6z"/>
<path d="M1488 213 c7 -3 16 -2 19 1 4 3 -2 6 -13 5 -11 0 -14 -3 -6 -6z"/>
<path d="M12608 213 c7 -3 16 -2 19 1 4 3 -2 6 -13 5 -11 0 -14 -3 -6 -6z"/>
<path d="M1528 203 c6 -2 18 -2 25 0 6 3 1 5 -13 5 -14 0 -19 -2 -12 -5z"/>
<path d="M1718 203 c12 -2 30 -2 40 0 9 3 -1 5 -23 4 -22 0 -30 -2 -17 -4z"/>
<path d="M12358 203 c12 -2 30 -2 40 0 9 3 -1 5 -23 4 -22 0 -30 -2 -17 -4z"/>
<path d="M12558 203 c6 -2 18 -2 25 0 6 3 1 5 -13 5 -14 0 -19 -2 -12 -5z"/>
<path d="M1613 193 c9 -2 25 -2 35 0 9 3 1 5 -18 5 -19 0 -27 -2 -17 -5z"/>
<path d="M12463 193 c9 -2 25 -2 35 0 9 3 1 5 -18 5 -19 0 -27 -2 -17 -5z"/>
<path d="M1708 183 c17 -2 47 -2 65 0 17 2 3 4 -33 4 -36 0 -50 -2 -32 -4z"/>
<path d="M12338 183 c17 -2 47 -2 65 0 17 2 3 4 -33 4 -36 0 -50 -2 -32 -4z"/>
</g>
</svg>
